<svg id="visual" viewBox="0 0 900 600" width="900" height="600" xmlns="http://www.w3.org/2000/svg" xmlns:xlink="http://www.w3.org/1999/xlink" version="1.1"><rect x="0" y="0" width="900" height="600" fill="#fad296"></rect><g transform="translate(490.02377496246163 227.4074839344123)"><path d="M308.6 -401.6C363.3 -385 345.7 -245.8 357.2 -134.1C368.7 -22.4 409.3 61.9 383.2 119C357.1 176.2 264.4 206.2 189.4 306.3C114.4 406.5 57.2 576.7 -39.1 630.5C-135.4 684.3 -270.8 621.7 -346.9 521.9C-422.9 422.1 -439.7 285.2 -450.2 166.7C-460.6 48.1 -464.7 -52.1 -469.5 -188.1C-474.2 -324 -479.6 -495.7 -401.4 -504.7C-323.3 -513.7 -161.6 -360 -17.3 -336.1C127 -312.3 253.9 -418.2 308.6 -401.6" fill="#000000"></path></g></svg>