<svg id="visual" viewBox="0 0 900 600" width="900" height="600" xmlns="http://www.w3.org/2000/svg" xmlns:xlink="http://www.w3.org/1999/xlink" version="1.1"><rect x="0" y="0" width="900" height="600" fill="#bfbfbf"></rect><path d="M0 428L11.5 427C23 426 46 424 69 426C92 428 115 434 138.2 434.5C161.3 435 184.7 430 207.8 430C231 430 254 435 277 433.7C300 432.3 323 424.7 346 422.2C369 419.7 392 422.3 415.2 426.3C438.3 430.3 461.7 435.7 484.8 435.3C508 435 531 429 554 428.3C577 427.7 600 432.3 623 434.8C646 437.3 669 437.7 692.2 436.5C715.3 435.3 738.7 432.7 761.8 429.7C785 426.7 808 423.3 831 424.5C854 425.7 877 431.3 888.5 434.2L900 437L900 601L888.5 601C877 601 854 601 831 601C808 601 785 601 761.8 601C738.7 601 715.3 601 692.2 601C669 601 646 601 623 601C600 601 577 601 554 601C531 601 508 601 484.8 601C461.7 601 438.3 601 415.2 601C392 601 369 601 346 601C323 601 300 601 277 601C254 601 231 601 207.8 601C184.7 601 161.3 601 138.2 601C115 601 92 601 69 601C46 601 23 601 11.5 601L0 601Z" fill="#fad269"></path><path d="M0 464L11.5 464C23 464 46 464 69 462.2C92 460.3 115 456.7 138.2 457C161.3 457.3 184.7 461.7 207.8 461.2C231 460.7 254 455.3 277 453.3C300 451.3 323 452.7 346 454.2C369 455.7 392 457.3 415.2 459.3C438.3 461.3 461.7 463.7 484.8 464.3C508 465 531 464 554 464.7C577 465.3 600 467.7 623 467.5C646 467.3 669 464.7 692.2 462.3C715.3 460 738.7 458 761.8 458.7C785 459.3 808 462.7 831 464.5C854 466.3 877 466.7 888.5 466.8L900 467L900 601L888.5 601C877 601 854 601 831 601C808 601 785 601 761.8 601C738.7 601 715.3 601 692.2 601C669 601 646 601 623 601C600 601 577 601 554 601C531 601 508 601 484.8 601C461.7 601 438.3 601 415.2 601C392 601 369 601 346 601C323 601 300 601 277 601C254 601 231 601 207.8 601C184.7 601 161.3 601 138.2 601C115 601 92 601 69 601C46 601 23 601 11.5 601L0 601Z" fill="#df6f2c"></path><path d="M0 497L11.5 496.8C23 496.7 46 496.3 69 495.8C92 495.3 115 494.7 138.2 493.2C161.3 491.7 184.7 489.3 207.8 487C231 484.7 254 482.3 277 482C300 481.7 323 483.3 346 485.2C369 487 392 489 415.2 490.3C438.3 491.7 461.7 492.3 484.8 492.3C508 492.3 531 491.7 554 490.3C577 489 600 487 623 488C646 489 669 493 692.2 493.7C715.3 494.3 738.7 491.7 761.8 489.7C785 487.7 808 486.3 831 484.8C854 483.3 877 481.7 888.5 480.8L900 480L900 601L888.5 601C877 601 854 601 831 601C808 601 785 601 761.8 601C738.7 601 715.3 601 692.2 601C669 601 646 601 623 601C600 601 577 601 554 601C531 601 508 601 484.8 601C461.7 601 438.3 601 415.2 601C392 601 369 601 346 601C323 601 300 601 277 601C254 601 231 601 207.8 601C184.7 601 161.3 601 138.2 601C115 601 92 601 69 601C46 601 23 601 11.5 601L0 601Z" fill="#c72424"></path><path d="M0 522L11.5 521.8C23 521.7 46 521.3 69 522C92 522.7 115 524.3 138.2 525C161.3 525.7 184.7 525.3 207.8 524.5C231 523.7 254 522.3 277 521.8C300 521.3 323 521.7 346 520.5C369 519.3 392 516.7 415.2 516.2C438.3 515.7 461.7 517.3 484.8 517.2C508 517 531 515 554 514.8C577 514.7 600 516.3 623 516.2C646 516 669 514 692.2 514.8C715.3 515.7 738.7 519.3 761.8 521.2C785 523 808 523 831 522C854 521 877 519 888.5 518L900 517L900 601L888.5 601C877 601 854 601 831 601C808 601 785 601 761.8 601C738.7 601 715.3 601 692.2 601C669 601 646 601 623 601C600 601 577 601 554 601C531 601 508 601 484.8 601C461.7 601 438.3 601 415.2 601C392 601 369 601 346 601C323 601 300 601 277 601C254 601 231 601 207.8 601C184.7 601 161.3 601 138.2 601C115 601 92 601 69 601C46 601 23 601 11.5 601L0 601Z" fill="#df6f2c"></path><path d="M0 545L11.5 546.5C23 548 46 551 69 551.7C92 552.3 115 550.7 138.2 549.5C161.3 548.3 184.7 547.7 207.8 548C231 548.3 254 549.7 277 550.5C300 551.3 323 551.7 346 551.8C369 552 392 552 415.2 551.8C438.3 551.7 461.7 551.3 484.8 551.3C508 551.3 531 551.7 554 550.8C577 550 600 548 623 546.7C646 545.3 669 544.7 692.2 545.8C715.3 547 738.7 550 761.8 550.5C785 551 808 549 831 548.3C854 547.7 877 548.3 888.5 548.7L900 549L900 601L888.5 601C877 601 854 601 831 601C808 601 785 601 761.8 601C738.7 601 715.3 601 692.2 601C669 601 646 601 623 601C600 601 577 601 554 601C531 601 508 601 484.8 601C461.7 601 438.3 601 415.2 601C392 601 369 601 346 601C323 601 300 601 277 601C254 601 231 601 207.8 601C184.7 601 161.3 601 138.2 601C115 601 92 601 69 601C46 601 23 601 11.5 601L0 601Z" fill="#fad269"></path></svg>