<?xml version="1.0" standalone="no"?>
<!DOCTYPE svg PUBLIC "-//W3C//DTD SVG 20010904//EN"
 "http://www.w3.org/TR/2001/REC-SVG-20010904/DTD/svg10.dtd">
<svg version="1.0" xmlns="http://www.w3.org/2000/svg"
 width="300.000000pt" height="216.000000pt" viewBox="0 0 300.000000 216.000000"
 preserveAspectRatio="xMidYMid meet">
<metadata>
Created by potrace 1.10, written by Peter Selinger 2001-2011
</metadata>
<g transform="translate(0.000000,216.000000) scale(0.100000,-0.100000)"
fill="#000000" stroke="none">
<path d="M405 1911 c-45 -21 -160 -136 -175 -176 -6 -14 -10 -117 -10 -231 l0
-204 -94 0 c-65 0 -97 -4 -104 -13 -16 -18 -17 -388 -2 -416 10 -19 20 -21
105 -21 l95 0 0 -210 c0 -163 3 -217 14 -238 17 -32 141 -155 173 -171 15 -8
326 -11 1093 -11 908 0 1075 2 1098 14 32 17 155 141 171 173 7 14 11 97 11
232 l0 211 94 0 c68 0 97 4 105 14 8 10 12 74 12 206 0 238 4 230 -123 230
l-88 0 0 204 c0 114 -4 217 -10 231 -15 40 -130 155 -175 176 -38 18 -91 19
-1095 19 -1004 0 -1057 -1 -1095 -19z m1085 -361 c0 -284 -2 -330 -15 -330 -8
0 -21 -12 -29 -28 -8 -15 -23 -36 -35 -46 -29 -26 -30 -115 -2 -140 11 -10 24
-30 31 -46 6 -15 20 -30 31 -33 18 -5 19 -18 19 -336 l0 -331 -514 0 c-321 0
-525 4 -541 10 -37 14 -140 115 -159 155 -12 25 -16 66 -16 172 l0 138 131 -3
c124 -3 132 -3 155 19 13 12 27 20 30 16 9 -8 90 48 125 87 26 28 28 37 29
110 0 57 -4 84 -15 96 -14 15 -14 18 0 30 11 9 15 33 15 94 0 81 0 81 -38 117
-54 52 -108 90 -115 82 -4 -3 -18 4 -31 16 -23 22 -31 22 -155 19 l-131 -3 0
138 c0 99 4 146 14 165 8 15 46 57 84 95 l70 67 531 0 531 0 0 -330z m1152
263 c38 -38 76 -80 84 -95 19 -36 21 -329 2 -310 -8 8 -52 12 -133 12 -107 0
-124 -2 -139 -19 -9 -10 -30 -21 -45 -24 -16 -3 -54 -29 -85 -57 l-56 -52 0
-81 c0 -58 4 -85 15 -97 14 -15 14 -18 0 -30 -11 -9 -15 -33 -15 -94 l0 -82
43 -40 c59 -57 98 -85 108 -78 5 3 17 -4 27 -16 16 -20 24 -21 155 -18 l137 3
0 -138 c0 -106 -4 -147 -16 -172 -19 -40 -122 -141 -159 -155 -16 -6 -220 -10
-541 -10 l-514 0 0 331 c0 318 1 331 19 336 11 3 25 18 31 33 7 16 20 36 31
46 28 25 27 114 -2 140 -12 10 -27 31 -35 46 -8 16 -21 28 -29 28 -13 0 -15
46 -15 330 l0 330 531 0 531 0 70 -67z m-2102 -428 c6 -8 9 -19 5 -25 -8 -14
8 -13 22 1 9 9 23 3 55 -22 84 -66 88 -73 88 -161 0 -71 -2 -80 -20 -85 -11
-3 -20 -10 -20 -17 0 -6 9 -17 20 -24 17 -10 20 -23 20 -85 -1 -67 -3 -75 -33
-108 -48 -54 -89 -79 -118 -72 -13 3 -21 2 -17 -2 4 -5 3 -14 -3 -22 -15 -18
-249 -19 -267 -1 -7 7 -12 31 -12 54 0 39 -2 42 -31 48 -17 3 -66 6 -108 6
-47 0 -82 5 -89 12 -17 17 -17 369 0 386 7 7 42 12 89 12 42 0 91 3 108 6 29
6 31 9 31 48 0 23 5 47 12 54 19 19 252 16 268 -3z m2188 3 c7 -7 12 -31 12
-54 0 -39 2 -42 31 -48 17 -3 66 -6 108 -6 47 0 82 -5 89 -12 17 -17 17 -369
0 -386 -7 -7 -41 -12 -83 -12 -38 0 -87 -3 -107 -6 -38 -7 -38 -7 -38 -55 0
-26 -5 -51 -10 -54 -6 -4 -65 -6 -131 -6 -122 0 -153 8 -142 37 6 17 -8 19
-25 2 -12 -12 -58 17 -114 73 -26 26 -28 33 -28 109 0 73 2 82 20 87 11 3 20
10 20 17 0 6 -9 17 -20 24 -17 10 -20 23 -20 85 1 64 4 75 28 103 44 50 90 77
117 70 17 -4 25 -2 25 7 0 31 24 37 140 37 77 0 120 -4 128 -12z m-1178 -233
c35 -37 39 -110 8 -155 -40 -59 -104 -47 -128 25 -34 104 54 200 120 130z"/>
</g>
</svg>
