<svg id="visual" viewBox="0 0 900 600" width="900" height="600" xmlns="http://www.w3.org/2000/svg" xmlns:xlink="http://www.w3.org/1999/xlink" version="1.1"><path d="M0 103L13.7 99C27.3 95 54.7 87 82 87C109.3 87 136.7 95 163.8 89C191 83 218 63 245.2 64C272.3 65 299.7 87 327 97C354.3 107 381.7 105 409 97C436.3 89 463.7 75 491 69C518.3 63 545.7 65 573 64C600.3 63 627.7 59 654.8 58C682 57 709 59 736.2 63C763.3 67 790.7 73 818 80C845.3 87 872.7 95 886.3 99L900 103L900 0L886.3 0C872.7 0 845.3 0 818 0C790.7 0 763.3 0 736.2 0C709 0 682 0 654.8 0C627.7 0 600.3 0 573 0C545.7 0 518.3 0 491 0C463.7 0 436.3 0 409 0C381.7 0 354.3 0 327 0C299.7 0 272.3 0 245.2 0C218 0 191 0 163.8 0C136.7 0 109.3 0 82 0C54.7 0 27.3 0 13.7 0L0 0Z" fill="#fde098"></path><path d="M0 319L13.7 305C27.3 291 54.7 263 82 244C109.3 225 136.7 215 163.8 220C191 225 218 245 245.2 243C272.3 241 299.7 217 327 219C354.3 221 381.7 249 409 255C436.3 261 463.7 245 491 257C518.3 269 545.7 309 573 317C600.3 325 627.7 301 654.8 295C682 289 709 301 736.2 293C763.3 285 790.7 257 818 258C845.3 259 872.7 289 886.3 304L900 319L900 101L886.3 97C872.7 93 845.3 85 818 78C790.7 71 763.3 65 736.2 61C709 57 682 55 654.8 56C627.7 57 600.3 61 573 62C545.7 63 518.3 61 491 67C463.7 73 436.3 87 409 95C381.7 103 354.3 105 327 95C299.7 85 272.3 63 245.2 62C218 61 191 81 163.8 87C136.7 93 109.3 85 82 85C54.7 85 27.3 93 13.7 97L0 101Z" fill="#ecc560"></path><path d="M0 397L13.7 387C27.3 377 54.7 357 82 350C109.3 343 136.7 349 163.8 366C191 383 218 411 245.2 405C272.3 399 299.7 359 327 345C354.3 331 381.7 343 409 353C436.3 363 463.7 371 491 384C518.3 397 545.7 415 573 421C600.3 427 627.7 421 654.8 422C682 423 709 431 736.2 411C763.3 391 790.7 343 818 337C845.3 331 872.7 367 886.3 385L900 403L900 317L886.3 302C872.7 287 845.3 257 818 256C790.7 255 763.3 283 736.2 291C709 299 682 287 654.8 293C627.7 299 600.3 323 573 315C545.7 307 518.3 267 491 255C463.7 243 436.3 259 409 253C381.7 247 354.3 219 327 217C299.7 215 272.3 239 245.2 241C218 243 191 223 163.8 218C136.7 213 109.3 223 82 242C54.7 261 27.3 289 13.7 303L0 317Z" fill="#c19e46"></path><path d="M0 499L13.7 484C27.3 469 54.7 439 82 424C109.3 409 136.7 409 163.8 421C191 433 218 457 245.2 453C272.3 449 299.7 417 327 411C354.3 405 381.7 425 409 436C436.3 447 463.7 449 491 457C518.3 465 545.7 479 573 481C600.3 483 627.7 473 654.8 474C682 475 709 487 736.2 475C763.3 463 790.7 427 818 425C845.3 423 872.7 455 886.3 471L900 487L900 401L886.3 383C872.7 365 845.3 329 818 335C790.7 341 763.3 389 736.2 409C709 429 682 421 654.8 420C627.7 419 600.3 425 573 419C545.7 413 518.3 395 491 382C463.7 369 436.3 361 409 351C381.7 341 354.3 329 327 343C299.7 357 272.3 397 245.2 403C218 409 191 381 163.8 364C136.7 347 109.3 341 82 348C54.7 355 27.3 375 13.7 385L0 395Z" fill="#ecc560"></path><path d="M0 601L13.7 601C27.3 601 54.7 601 82 601C109.3 601 136.7 601 163.8 601C191 601 218 601 245.2 601C272.3 601 299.7 601 327 601C354.3 601 381.7 601 409 601C436.3 601 463.7 601 491 601C518.3 601 545.7 601 573 601C600.3 601 627.7 601 654.8 601C682 601 709 601 736.2 601C763.3 601 790.7 601 818 601C845.3 601 872.7 601 886.3 601L900 601L900 485L886.3 469C872.7 453 845.3 421 818 423C790.7 425 763.3 461 736.2 473C709 485 682 473 654.8 472C627.7 471 600.3 481 573 479C545.7 477 518.3 463 491 455C463.7 447 436.3 445 409 434C381.7 423 354.3 403 327 409C299.7 415 272.3 447 245.2 451C218 455 191 431 163.8 419C136.7 407 109.3 407 82 422C54.7 437 27.3 467 13.7 482L0 497Z" fill="#fde098"></path></svg>