<?xml version="1.0" standalone="no"?>
<!DOCTYPE svg PUBLIC "-//W3C//DTD SVG 20010904//EN"
 "http://www.w3.org/TR/2001/REC-SVG-20010904/DTD/svg10.dtd">
<svg version="1.0" xmlns="http://www.w3.org/2000/svg"
 width="300.000000pt" height="202.000000pt" viewBox="0 0 300.000000 202.000000"
 preserveAspectRatio="xMidYMid meet">
<metadata>
Created by potrace 1.10, written by Peter Selinger 2001-2011
</metadata>
<g transform="translate(0.000000,202.000000) scale(0.100000,-0.100000)"
fill="#ef83b5" stroke="none">
<path d="M800 1991 c-161 -4 -252 -10 -265 -18 -11 -6 -73 -65 -137 -130 -90
-91 -119 -127 -127 -158 -6 -22 -11 -130 -11 -242 l0 -203 -94 0 c-71 0 -98
-4 -110 -15 -12 -13 -14 -46 -10 -218 3 -111 7 -208 10 -214 2 -9 32 -13 102
-13 l99 0 6 -231 c6 -206 8 -234 26 -263 11 -18 69 -79 128 -137 80 -78 119
-108 149 -117 31 -9 265 -12 938 -12 752 0 902 2 931 14 39 16 202 166 255
233 l35 46 3 233 4 233 101 3 102 3 3 226 2 226 -90 7 c-50 4 -95 4 -99 1 -5
-2 -12 93 -15 213 -6 182 -10 224 -26 258 -24 53 -180 217 -239 252 l-46 27
-690 1 c-379 0 -800 -2 -935 -5z m660 -60 c0 -45 -4 -52 -45 -90 -37 -34 -51
-41 -86 -41 -24 0 -50 6 -58 14 -10 9 -53 16 -116 21 -93 6 -102 5 -122 -14
-17 -17 -35 -21 -84 -21 l-61 0 -68 65 -67 66 -84 -7 c-46 -3 -93 -12 -104
-19 -47 -29 -205 -194 -220 -228 -12 -29 -15 -80 -15 -250 0 -215 -3 -237 -37
-237 -17 0 -19 424 -2 485 8 31 36 66 117 148 59 60 121 116 137 125 31 18
197 25 713 30 l202 2 0 -49z m60 -3 c0 -34 6 -58 17 -70 14 -16 15 -20 1 -35
-9 -10 -19 -38 -24 -63 -11 -63 -10 -485 3 -543 10 -47 10 -47 -17 -47 -26 0
-26 0 -19 53 10 69 10 479 0 540 -5 27 -16 53 -26 61 -18 13 -18 14 3 41 17
22 20 35 15 71 -5 42 -5 44 21 44 25 0 26 -3 26 -52z m928 29 c46 -25 219
-201 242 -248 18 -35 20 -59 20 -278 l0 -240 -22 8 c-23 8 -23 11 -28 237 -3
143 -9 238 -17 254 -18 40 -194 208 -235 225 -39 16 -188 22 -188 7 0 -5 -24
-34 -53 -65 l-53 -57 -64 0 c-44 0 -69 5 -81 16 -25 22 -215 21 -239 -1 -10
-9 -36 -15 -63 -15 -40 0 -50 5 -88 43 -37 37 -43 49 -44 90 l-2 48 441 -3
c402 -3 444 -5 474 -21z m-1645 -104 c56 -57 59 -58 124 -63 l66 -5 0 -143 c0
-89 -5 -148 -11 -154 -8 -8 -20 -7 -42 2 -27 11 -32 11 -45 -6 -8 -11 -12 -26
-8 -34 16 -40 9 -55 -27 -58 -26 -2 -47 -15 -81 -48 -44 -44 -46 -44 -75 -30
-47 24 -114 86 -114 106 0 10 -16 32 -35 49 -34 29 -40 31 -120 31 l-85 0 0
75 c0 47 6 86 14 103 20 37 195 209 226 221 14 5 54 10 90 10 l64 1 59 -57z
m1600 46 c32 -16 206 -189 223 -221 8 -17 14 -56 14 -103 l0 -75 -76 0 c-41 0
-85 -5 -97 -11 -35 -18 -67 -51 -67 -69 0 -20 -80 -100 -101 -100 -8 0 -20 -5
-27 -12 -9 -9 -22 -3 -55 30 -27 27 -52 42 -68 42 -14 0 -34 6 -44 14 -18 13
-18 17 -5 41 17 32 3 61 -29 58 -73 -9 -66 -25 -69 143 l-3 151 56 -5 56 -5
62 65 62 65 73 2 c40 0 83 -4 95 -10z m-943 -139 c0 -20 5 -41 10 -46 12 -12
8 -408 -5 -480 -6 -35 -12 -43 -33 -48 -41 -9 -91 -57 -106 -101 -13 -38 -17
-40 -68 -48 -29 -5 -147 -7 -263 -5 -172 3 -214 6 -233 19 -20 14 -21 18 -7
29 21 18 21 166 0 190 -15 16 -12 21 31 59 34 30 55 41 79 41 21 0 35 6 39 16
4 10 14 14 25 11 30 -8 62 20 55 47 -3 14 1 27 10 35 13 11 16 39 16 158 0
182 0 182 136 183 70 0 95 -4 104 -15 9 -10 32 -15 75 -15 49 0 66 4 80 20 17
19 19 19 37 4 11 -11 18 -31 18 -54z m207 20 c35 0 58 6 76 20 21 16 40 20
109 20 127 -1 128 -2 128 -183 0 -119 3 -147 16 -158 8 -7 13 -21 11 -31 -7
-23 32 -61 55 -55 10 3 22 -1 29 -9 6 -8 22 -14 34 -14 12 0 45 -19 73 -41 48
-39 50 -43 37 -63 -21 -29 -21 -169 0 -186 21 -18 10 -26 -53 -39 -57 -12
-374 -14 -457 -3 -46 7 -50 9 -56 40 -9 44 -53 90 -100 104 l-37 11 -7 81 c-7
85 -1 424 8 489 3 21 11 45 18 53 10 13 16 11 39 -11 21 -20 36 -25 77 -25z
m-1124 -325 c15 -13 27 -30 27 -37 0 -17 101 -118 119 -118 8 0 25 -10 38 -22
20 -19 23 -31 23 -104 0 -80 -1 -83 -30 -104 -24 -17 -30 -29 -30 -59 0 -30 7
-44 36 -72 35 -33 36 -35 32 -101 -3 -58 -8 -72 -33 -98 -16 -16 -36 -30 -46
-30 -19 0 -109 -93 -109 -113 0 -7 -11 -24 -25 -37 -22 -21 -37 -25 -110 -27
l-85 -3 0 78 c0 44 -3 100 -6 125 l-7 46 49 3 c45 3 50 6 71 43 38 66 47 112
29 140 -20 31 -20 59 0 90 18 28 9 74 -29 140 -21 37 -26 40 -71 43 -48 3 -48
3 -42 34 3 17 6 70 6 119 l0 89 83 0 c72 -1 85 -3 110 -25z m402 13 c14 -6 25
-16 25 -23 0 -13 -20 -35 -32 -35 -13 0 -40 48 -33 60 8 13 8 13 40 -2z m1139
6 c14 -5 14 -9 0 -36 -17 -32 -40 -34 -58 -5 -9 15 -7 21 8 33 22 16 28 17 50
8z m556 -113 l0 -120 -42 -3 c-40 -3 -45 -6 -65 -48 -30 -60 -39 -109 -24
-131 14 -23 15 -86 1 -94 -18 -11 -10 -59 20 -122 l29 -63 46 0 45 0 0 -120 0
-120 -87 0 c-81 0 -89 2 -115 27 -15 15 -28 31 -28 37 0 15 -92 106 -108 106
-7 0 -26 15 -43 32 -26 30 -29 39 -29 103 0 66 2 73 30 100 23 22 30 38 30 65
0 27 -7 43 -30 65 -28 27 -30 34 -30 101 0 70 1 73 35 103 20 17 42 31 49 31
14 0 96 92 96 108 0 6 14 22 31 36 27 23 39 26 110 26 l79 0 0 -119z m-2223
-146 c13 -4 63 -107 63 -129 0 -7 -7 -19 -15 -26 -8 -7 -15 -29 -15 -50 0 -21
7 -43 15 -50 8 -7 15 -20 15 -29 0 -29 -48 -119 -69 -130 -34 -19 -58 -13 -65
14 -5 18 -15 27 -36 32 l-30 6 0 163 c0 157 1 164 20 164 11 0 27 11 36 25 16
24 28 26 81 10z m2233 -10 c7 -18 17 -25 35 -25 l25 0 0 -159 c0 -152 -1 -160
-21 -166 -11 -4 -25 -18 -31 -31 -9 -19 -19 -24 -48 -24 -34 0 -37 3 -63 55
-28 58 -34 90 -17 100 6 3 10 26 10 50 0 24 -4 47 -10 50 -17 10 -11 58 14
112 21 45 29 52 58 56 18 2 34 5 36 5 1 1 7 -9 12 -23z m236 15 l34 0 0 -210
0 -210 -97 0 -98 0 3 216 3 217 61 -7 c33 -3 76 -6 94 -6z m-2616 -210 l0
-210 -99 0 -98 0 -5 198 c-4 124 -2 202 4 210 7 8 41 12 104 12 l94 0 0 -210z
m1185 150 c8 -14 61 -13 84 2 24 15 78 -15 103 -58 15 -26 16 -35 6 -62 -10
-25 -10 -39 0 -64 10 -27 9 -36 -6 -62 -22 -38 -81 -79 -96 -67 -21 16 -57 20
-87 9 -39 -14 -69 2 -105 54 -21 29 -24 42 -16 50 15 15 16 80 1 95 -15 15 12
61 54 91 34 24 52 28 62 12z m-702 -122 c33 -19 74 -21 292 -21 203 0 261 3
283 17 8 5 12 -2 12 -23 0 -29 -1 -30 -32 -23 -18 4 -146 7 -284 7 -218 0
-254 -2 -270 -16 -27 -23 -44 -13 -44 25 0 47 8 53 43 34z m1525 -24 c1 -16
-2 -36 -7 -44 -8 -12 -13 -11 -31 5 -19 17 -43 20 -203 25 l-182 5 150 7 c167
8 232 16 241 30 11 17 29 2 32 -28z m-522 2 c18 -14 18 -15 -6 -20 -14 -3 -40
-7 -57 -9 -29 -3 -33 -1 -33 20 0 20 5 23 38 23 21 0 47 -6 58 -14z m-480 -41
c36 -6 43 -11 48 -37 8 -38 66 -96 104 -104 26 -5 31 -12 37 -48 10 -53 10
-466 0 -528 -9 -62 -28 -78 -58 -49 -19 17 -36 21 -84 21 -45 0 -62 -4 -67
-15 -4 -12 -25 -15 -103 -15 -143 1 -143 0 -143 177 0 109 -3 143 -16 161 -8
12 -12 27 -9 33 10 15 -25 49 -50 49 -13 0 -28 7 -35 15 -7 8 -27 15 -44 15
-24 0 -42 10 -74 43 -38 38 -41 45 -27 57 19 16 22 169 3 188 -17 17 -2 28 52
40 49 11 398 9 466 -3z m911 0 c51 -8 70 -27 48 -45 -20 -17 -21 -148 -1 -176
14 -17 11 -23 -27 -61 -27 -29 -50 -43 -67 -43 -14 0 -35 -7 -46 -15 -10 -8
-28 -15 -39 -15 -27 0 -45 -18 -45 -44 0 -12 -7 -30 -15 -40 -12 -15 -15 -53
-15 -162 0 -136 -1 -144 -22 -158 -31 -22 -200 -23 -218 -1 -20 24 -128 20
-155 -5 l-22 -20 -18 20 c-17 19 -20 43 -23 235 -3 118 -1 253 3 300 6 79 8
85 29 85 31 0 102 64 117 105 11 30 18 35 44 35 16 0 37 5 45 10 16 11 354 7
427 -5z m-670 -172 c-12 -55 -13 -485 -2 -553 4 -25 13 -52 20 -60 11 -12 11
-18 -1 -34 -8 -11 -14 -41 -14 -68 0 -45 -2 -48 -25 -48 -24 0 -25 3 -25 54 0
36 -5 58 -15 66 -14 12 -13 16 7 37 23 24 23 27 23 306 0 155 -3 297 -7 315
-7 30 -6 32 21 32 l28 0 -10 -47z m1193 -190 c0 -126 -3 -246 -7 -268 -5 -34
-24 -58 -116 -152 -62 -64 -128 -121 -152 -133 -39 -19 -60 -20 -471 -20
l-431 0 2 46 c2 38 9 52 41 85 34 35 43 39 86 39 28 0 59 -7 73 -16 21 -14 41
-15 125 -9 55 4 103 11 106 16 3 5 37 9 76 9 l71 0 60 -60 60 -60 66 0 c110 0
126 9 243 128 59 59 109 119 112 132 2 14 7 124 11 244 5 208 11 246 36 246 5
0 9 -102 9 -227z m-2380 -28 c6 -279 -5 -248 137 -386 99 -98 124 -109 241
-109 52 0 72 4 72 13 0 7 21 33 48 59 45 43 51 46 115 51 56 4 71 1 91 -14 34
-27 197 -28 230 -1 17 13 36 16 70 14 38 -3 55 -11 87 -42 34 -33 39 -42 39
-83 l0 -47 -422 0 c-273 0 -437 4 -462 11 -29 8 -67 38 -143 112 -156 151
-146 125 -151 420 l-4 249 23 -4 24 -3 5 -240z m466 68 c13 -13 36 -23 51 -23
47 0 58 -13 44 -51 -10 -28 -9 -36 7 -52 16 -15 22 -16 46 -6 16 8 30 9 35 3
5 -5 11 -72 13 -149 l3 -140 -61 -3 c-59 -3 -62 -5 -123 -62 l-62 -60 -65 0
c-36 0 -79 6 -97 14 -18 8 -77 59 -132 115 l-100 101 -3 90 -4 90 88 0 c85 0
89 1 121 32 18 18 33 37 33 43 0 14 81 93 111 109 25 14 32 10 95 -51z m1564
-5 c22 -23 40 -47 40 -54 0 -7 17 -26 37 -43 36 -29 42 -31 124 -31 l86 0 1
-67 c0 -38 -5 -80 -11 -95 -18 -40 -184 -214 -222 -232 -20 -10 -60 -16 -102
-16 l-69 0 -62 60 c-61 60 -61 60 -122 60 l-60 0 0 143 c0 152 6 175 42 156
49 -26 84 13 57 63 -13 25 1 38 44 38 19 0 43 14 74 43 45 42 47 43 74 30 16
-8 47 -33 69 -55z m-1392 -75 c4 -30 -34 -51 -55 -30 -12 12 -13 19 -3 36 15
29 54 25 58 -6z m1116 11 c11 -28 6 -44 -13 -44 -30 0 -55 29 -40 46 15 19 45
18 53 -2z"/>
<path d="M825 1919 c-11 -4 118 -8 287 -8 206 -1 309 2 313 10 8 12 -568 11
-600 -2z"/>
<path d="M1483 1851 c-1 -11 5 -22 13 -25 11 -4 15 0 12 16 -4 27 -23 34 -25
9z"/>
<path d="M1723 1923 c87 -2 227 -2 310 0 84 1 13 3 -158 3 -170 0 -239 -2
-152 -3z"/>
<path d="M526 1771 c-3 -5 -1 -22 4 -37 l11 -27 24 23 c14 13 22 27 18 31 -15
13 -51 20 -57 10z"/>
<path d="M2385 1760 c-6 -10 22 -60 35 -60 7 0 30 45 30 60 0 13 -57 13 -65 0z"/>
<path d="M1451 1062 c-48 -38 -19 -122 43 -122 37 0 49 7 65 37 17 33 14 51
-14 78 -28 29 -64 32 -94 7z m89 -21 c17 -32 11 -60 -15 -77 -52 -34 -111 31
-70 76 23 26 71 26 85 1z"/>
<path d="M1484 176 c-4 -10 -2 -22 4 -28 8 -8 13 -7 18 6 4 10 2 22 -4 28 -8
8 -13 7 -18 -6z"/>
<path d="M1723 93 c86 -2 228 -2 315 0 86 1 15 3 -158 3 -173 0 -244 -2 -157
-3z"/>
<path d="M958 93 c89 -2 235 -2 325 0 89 1 16 3 -163 3 -179 0 -252 -2 -162
-3z"/>
<path d="M532 265 c-16 -35 -16 -35 22 -35 42 0 50 10 30 38 -20 29 -38 28
-52 -3z"/>
<path d="M2441 276 c-28 -30 -20 -46 21 -46 28 0 30 2 23 28 -10 41 -19 45
-44 18z"/>
</g>
</svg>
