<svg id="visual" viewBox="0 0 900 599" xmlns="http://www.w3.org/2000/svg" xmlns:xlink="http://www.w3.org/1999/xlink" version="1.1"><rect x="0" y="0" width="900" height="600" fill="#575757"></rect><path d="M0 365L11.5 358.8C23 352.7 46 340.3 69 337.5C92 334.7 115 341.3 138.2 341C161.3 340.7 184.7 333.3 207.8 330.7C231 328 254 330 277 333.5C300 337 323 342 346 348.8C369 355.7 392 364.3 415.2 367.5C438.3 370.7 461.7 368.3 484.8 363.3C508 358.3 531 350.7 554 346.7C577 342.7 600 342.3 623 345.7C646 349 669 356 692.2 360.5C715.3 365 738.7 367 761.8 362.7C785 358.3 808 347.7 831 346.3C854 345 877 353 888.5 357L900 361L900 0L888.5 0C877 0 854 0 831 0C808 0 785 0 761.8 0C738.7 0 715.3 0 692.2 0C669 0 646 0 623 0C600 0 577 0 554 0C531 0 508 0 484.8 0C461.7 0 438.3 0 415.2 0C392 0 369 0 346 0C323 0 300 0 277 0C254 0 231 0 207.8 0C184.7 0 161.3 0 138.2 0C115 0 92 0 69 0C46 0 23 0 11.5 0L0 0Z" fill="#c72424"></path><path d="M0 311L11.5 312C23 313 46 315 69 316.3C92 317.7 115 318.3 138.2 316C161.3 313.7 184.7 308.3 207.8 310.5C231 312.7 254 322.3 277 325.5C300 328.7 323 325.3 346 326.5C369 327.7 392 333.3 415.2 335.5C438.3 337.7 461.7 336.3 484.8 337.3C508 338.3 531 341.7 554 340.2C577 338.7 600 332.3 623 329.5C646 326.7 669 327.3 692.2 326.8C715.3 326.3 738.7 324.7 761.8 327.2C785 329.7 808 336.3 831 337.5C854 338.7 877 334.3 888.5 332.2L900 330L900 0L888.5 0C877 0 854 0 831 0C808 0 785 0 761.8 0C738.7 0 715.3 0 692.2 0C669 0 646 0 623 0C600 0 577 0 554 0C531 0 508 0 484.8 0C461.7 0 438.3 0 415.2 0C392 0 369 0 346 0C323 0 300 0 277 0C254 0 231 0 207.8 0C184.7 0 161.3 0 138.2 0C115 0 92 0 69 0C46 0 23 0 11.5 0L0 0Z" fill="#ce3b24"></path><path d="M0 299L11.5 298.8C23 298.7 46 298.3 69 294.7C92 291 115 284 138.2 280.2C161.3 276.3 184.7 275.7 207.8 279.5C231 283.3 254 291.7 277 293.5C300 295.3 323 290.7 346 289.3C369 288 392 290 415.2 291.3C438.3 292.7 461.7 293.3 484.8 292C508 290.7 531 287.3 554 287.5C577 287.7 600 291.3 623 290C646 288.7 669 282.3 692.2 282.5C715.3 282.7 738.7 289.3 761.8 290.5C785 291.7 808 287.3 831 284.5C854 281.7 877 280.3 888.5 279.7L900 279L900 0L888.5 0C877 0 854 0 831 0C808 0 785 0 761.8 0C738.7 0 715.3 0 692.2 0C669 0 646 0 623 0C600 0 577 0 554 0C531 0 508 0 484.8 0C461.7 0 438.3 0 415.2 0C392 0 369 0 346 0C323 0 300 0 277 0C254 0 231 0 207.8 0C184.7 0 161.3 0 138.2 0C115 0 92 0 69 0C46 0 23 0 11.5 0L0 0Z" fill="#d44d25"></path><path d="M0 259L11.5 258C23 257 46 255 69 256.7C92 258.3 115 263.7 138.2 267.2C161.3 270.7 184.7 272.3 207.8 269.3C231 266.3 254 258.7 277 255.3C300 252 323 253 346 255.5C369 258 392 262 415.2 265.3C438.3 268.7 461.7 271.3 484.8 272.8C508 274.3 531 274.7 554 273.8C577 273 600 271 623 271.8C646 272.7 669 276.3 692.2 274.2C715.3 272 738.7 264 761.8 264.8C785 265.7 808 275.3 831 278.2C854 281 877 277 888.5 275L900 273L900 0L888.5 0C877 0 854 0 831 0C808 0 785 0 761.8 0C738.7 0 715.3 0 692.2 0C669 0 646 0 623 0C600 0 577 0 554 0C531 0 508 0 484.8 0C461.7 0 438.3 0 415.2 0C392 0 369 0 346 0C323 0 300 0 277 0C254 0 231 0 207.8 0C184.7 0 161.3 0 138.2 0C115 0 92 0 69 0C46 0 23 0 11.5 0L0 0Z" fill="#da5e28"></path><path d="M0 249L11.5 245.3C23 241.7 46 234.3 69 231.7C92 229 115 231 138.2 232.3C161.3 233.7 184.7 234.3 207.8 233.3C231 232.3 254 229.7 277 232.3C300 235 323 243 346 245.8C369 248.7 392 246.3 415.2 241.5C438.3 236.7 461.7 229.3 484.8 226C508 222.7 531 223.3 554 223.8C577 224.3 600 224.7 623 227.3C646 230 669 235 692.2 236.8C715.3 238.7 738.7 237.3 761.8 235.7C785 234 808 232 831 233.5C854 235 877 240 888.5 242.5L900 245L900 0L888.5 0C877 0 854 0 831 0C808 0 785 0 761.8 0C738.7 0 715.3 0 692.2 0C669 0 646 0 623 0C600 0 577 0 554 0C531 0 508 0 484.8 0C461.7 0 438.3 0 415.2 0C392 0 369 0 346 0C323 0 300 0 277 0C254 0 231 0 207.8 0C184.7 0 161.3 0 138.2 0C115 0 92 0 69 0C46 0 23 0 11.5 0L0 0Z" fill="#df6e2b"></path><path d="M0 211L11.5 208.7C23 206.3 46 201.7 69 203.8C92 206 115 215 138.2 218.5C161.3 222 184.7 220 207.8 215.7C231 211.3 254 204.7 277 205.3C300 206 323 214 346 217C369 220 392 218 415.2 216.8C438.3 215.7 461.7 215.3 484.8 215.5C508 215.7 531 216.3 554 218C577 219.7 600 222.3 623 220.8C646 219.3 669 213.7 692.2 212.5C715.3 211.3 738.7 214.7 761.8 213.7C785 212.7 808 207.3 831 207.5C854 207.7 877 213.3 888.5 216.2L900 219L900 0L888.5 0C877 0 854 0 831 0C808 0 785 0 761.8 0C738.7 0 715.3 0 692.2 0C669 0 646 0 623 0C600 0 577 0 554 0C531 0 508 0 484.8 0C461.7 0 438.3 0 415.2 0C392 0 369 0 346 0C323 0 300 0 277 0C254 0 231 0 207.8 0C184.7 0 161.3 0 138.2 0C115 0 92 0 69 0C46 0 23 0 11.5 0L0 0Z" fill="#e47d30"></path><path d="M0 193L11.5 191.7C23 190.3 46 187.7 69 185.2C92 182.7 115 180.3 138.2 179.8C161.3 179.3 184.7 180.7 207.8 181.3C231 182 254 182 277 180.2C300 178.3 323 174.7 346 173.7C369 172.7 392 174.3 415.2 176.3C438.3 178.3 461.7 180.7 484.8 179.8C508 179 531 175 554 173.7C577 172.3 600 173.7 623 175.5C646 177.3 669 179.7 692.2 179.7C715.3 179.7 738.7 177.3 761.8 178.7C785 180 808 185 831 185C854 185 877 180 888.5 177.5L900 175L900 0L888.5 0C877 0 854 0 831 0C808 0 785 0 761.8 0C738.7 0 715.3 0 692.2 0C669 0 646 0 623 0C600 0 577 0 554 0C531 0 508 0 484.8 0C461.7 0 438.3 0 415.2 0C392 0 369 0 346 0C323 0 300 0 277 0C254 0 231 0 207.8 0C184.7 0 161.3 0 138.2 0C115 0 92 0 69 0C46 0 23 0 11.5 0L0 0Z" fill="#e88b36"></path><path d="M0 158L11.5 156.5C23 155 46 152 69 150.3C92 148.7 115 148.3 138.2 149C161.3 149.7 184.7 151.3 207.8 153.5C231 155.7 254 158.3 277 160.2C300 162 323 163 346 161.8C369 160.7 392 157.3 415.2 157.7C438.3 158 461.7 162 484.8 160.7C508 159.3 531 152.7 554 152.2C577 151.7 600 157.3 623 159.7C646 162 669 161 692.2 159.8C715.3 158.7 738.7 157.3 761.8 155.3C785 153.3 808 150.7 831 152.2C854 153.7 877 159.3 888.5 162.2L900 165L900 0L888.5 0C877 0 854 0 831 0C808 0 785 0 761.8 0C738.7 0 715.3 0 692.2 0C669 0 646 0 623 0C600 0 577 0 554 0C531 0 508 0 484.8 0C461.7 0 438.3 0 415.2 0C392 0 369 0 346 0C323 0 300 0 277 0C254 0 231 0 207.8 0C184.7 0 161.3 0 138.2 0C115 0 92 0 69 0C46 0 23 0 11.5 0L0 0Z" fill="#ec9a3e"></path><path d="M0 123L11.5 123.2C23 123.3 46 123.7 69 125.7C92 127.7 115 131.3 138.2 133.2C161.3 135 184.7 135 207.8 133.8C231 132.7 254 130.3 277 128C300 125.7 323 123.3 346 124.8C369 126.3 392 131.7 415.2 132.3C438.3 133 461.7 129 484.8 128.2C508 127.3 531 129.7 554 129.3C577 129 600 126 623 126.7C646 127.3 669 131.7 692.2 132.8C715.3 134 738.7 132 761.8 129.8C785 127.7 808 125.3 831 126.2C854 127 877 131 888.5 133L900 135L900 0L888.5 0C877 0 854 0 831 0C808 0 785 0 761.8 0C738.7 0 715.3 0 692.2 0C669 0 646 0 623 0C600 0 577 0 554 0C531 0 508 0 484.8 0C461.7 0 438.3 0 415.2 0C392 0 369 0 346 0C323 0 300 0 277 0C254 0 231 0 207.8 0C184.7 0 161.3 0 138.2 0C115 0 92 0 69 0C46 0 23 0 11.5 0L0 0Z" fill="#f0a847"></path><path d="M0 109L11.5 106.7C23 104.3 46 99.7 69 98C92 96.3 115 97.7 138.2 97.7C161.3 97.7 184.7 96.3 207.8 96.5C231 96.7 254 98.3 277 99.3C300 100.3 323 100.7 346 100.7C369 100.7 392 100.3 415.2 101.7C438.3 103 461.7 106 484.8 105C508 104 531 99 554 97C577 95 600 96 623 98.2C646 100.3 669 103.7 692.2 104.2C715.3 104.7 738.7 102.3 761.8 101.5C785 100.7 808 101.3 831 101.8C854 102.3 877 102.7 888.5 102.8L900 103L900 0L888.5 0C877 0 854 0 831 0C808 0 785 0 761.8 0C738.7 0 715.3 0 692.2 0C669 0 646 0 623 0C600 0 577 0 554 0C531 0 508 0 484.8 0C461.7 0 438.3 0 415.2 0C392 0 369 0 346 0C323 0 300 0 277 0C254 0 231 0 207.8 0C184.7 0 161.3 0 138.2 0C115 0 92 0 69 0C46 0 23 0 11.5 0L0 0Z" fill="#f4b651"></path><path d="M0 68L11.5 68.7C23 69.3 46 70.7 69 71.3C92 72 115 72 138.2 72.2C161.3 72.3 184.7 72.7 207.8 73.2C231 73.7 254 74.3 277 75.2C300 76 323 77 346 76.2C369 75.3 392 72.7 415.2 72C438.3 71.3 461.7 72.7 484.8 73.3C508 74 531 74 554 73.3C577 72.7 600 71.3 623 70.2C646 69 669 68 692.2 69.5C715.3 71 738.7 75 761.8 76.8C785 78.7 808 78.3 831 77.7C854 77 877 76 888.5 75.5L900 75L900 0L888.5 0C877 0 854 0 831 0C808 0 785 0 761.8 0C738.7 0 715.3 0 692.2 0C669 0 646 0 623 0C600 0 577 0 554 0C531 0 508 0 484.8 0C461.7 0 438.3 0 415.2 0C392 0 369 0 346 0C323 0 300 0 277 0C254 0 231 0 207.8 0C184.7 0 161.3 0 138.2 0C115 0 92 0 69 0C46 0 23 0 11.5 0L0 0Z" fill="#f7c45d"></path><path d="M0 47L11.5 46C23 45 46 43 69 43.2C92 43.3 115 45.7 138.2 46C161.3 46.3 184.7 44.7 207.8 43.8C231 43 254 43 277 43.2C300 43.3 323 43.7 346 43.7C369 43.7 392 43.3 415.2 43.3C438.3 43.3 461.7 43.7 484.8 43.5C508 43.3 531 42.7 554 43C577 43.3 600 44.7 623 45.2C646 45.7 669 45.3 692.2 44.5C715.3 43.7 738.7 42.3 761.8 42.8C785 43.3 808 45.7 831 47C854 48.3 877 48.7 888.5 48.8L900 49L900 0L888.5 0C877 0 854 0 831 0C808 0 785 0 761.8 0C738.7 0 715.3 0 692.2 0C669 0 646 0 623 0C600 0 577 0 554 0C531 0 508 0 484.8 0C461.7 0 438.3 0 415.2 0C392 0 369 0 346 0C323 0 300 0 277 0C254 0 231 0 207.8 0C184.7 0 161.3 0 138.2 0C115 0 92 0 69 0C46 0 23 0 11.5 0L0 0Z" fill="#fad269"></path></svg>